<svg width="25" height="24" viewBox="0 0 25 24" fill="none" xmlns="http://www.w3.org/2000/svg">
<g id="HiFire">
<path id="Vector" fill-rule="evenodd" clip-rule="evenodd" d="M15.3741 3.06441C15.298 2.91205 15.1904 2.77762 15.0584 2.67006C14.9264 2.56251 14.773 2.48428 14.6084 2.44058C14.4438 2.39688 14.2718 2.38871 14.1038 2.41661C13.9358 2.44451 13.7757 2.50785 13.6341 2.60241C13.2201 2.87841 12.8973 3.27201 12.6477 3.65841C12.3909 4.05441 12.1641 4.51401 11.9637 4.99761C11.5629 5.96241 11.2269 7.11921 10.9557 8.27841C10.6277 9.69499 10.3821 11.1294 10.2201 12.5744C9.73186 12.2596 9.33956 11.8167 9.0861 11.294C8.6925 10.478 8.6085 9.45321 8.6085 8.10921C8.60845 7.87191 8.53805 7.63995 8.40619 7.44266C8.27432 7.24536 8.08693 7.0916 7.86769 7.00079C7.64845 6.90999 7.40721 6.88622 7.17447 6.93251C6.94172 6.97879 6.72793 7.09303 6.5601 7.26081C5.7791 8.04013 5.15974 8.96606 4.73758 9.98542C4.31542 11.0048 4.09878 12.0975 4.1001 13.2008C4.1002 14.5821 4.44096 15.9422 5.09219 17.1604C5.74342 18.3786 6.68502 19.4174 7.8336 20.1847C8.98218 20.9521 10.3023 21.4244 11.677 21.5598C13.0517 21.6951 14.4385 21.4894 15.7147 20.9608C16.9909 20.4321 18.117 19.5969 18.9934 18.5291C19.8697 17.4613 20.4692 16.1939 20.7387 14.8391C21.0082 13.4843 20.9394 12.084 20.5385 10.7621C20.1376 9.44022 19.4168 8.23761 18.4401 7.26081C17.7297 6.55161 17.2641 6.07881 16.8225 5.50041C16.3869 4.92921 15.9537 4.22481 15.3741 3.06441ZM15.0441 18.1448C14.5406 18.6476 13.8995 18.99 13.2016 19.1286C12.5036 19.2673 11.7803 19.196 11.1229 18.9238C10.4654 18.6516 9.90344 18.1906 9.50782 17.5992C9.11221 17.0078 8.90073 16.3124 8.9001 15.6008C8.9001 15.6008 9.9549 16.2008 11.9001 16.2008C11.9001 15.0008 12.5001 11.4008 13.4001 10.8008C14.0001 12.0008 14.3433 12.3524 15.0453 13.0556C15.3802 13.3894 15.6457 13.7861 15.8267 14.2229C16.0078 14.6597 16.1007 15.128 16.1001 15.6008C16.1007 16.0736 16.0078 16.5419 15.8267 16.9787C15.6457 17.4155 15.3802 17.8122 15.0453 18.146L15.0441 18.1448Z" fill="#4F46E5"/>
</g>
</svg>
