<svg width="73" height="72" viewBox="0 0 73 72" fill="none" xmlns="http://www.w3.org/2000/svg">
<g id="business.fabc3a7.svg">
<g id="Group">
<g id="stroke">
<path id="Vector" d="M51.0125 49.7234C50.9358 49.9849 50.8072 50.2283 50.6342 50.4389C50.4613 50.6494 50.2476 50.823 50.006 50.949C49.7644 51.0751 49.4999 51.1511 49.2282 51.1724C48.9565 51.1938 48.6833 51.1601 48.425 51.0734H48.3125C47.8067 50.8572 47.4038 50.4542 47.1875 49.9484H47.075L42.8 42.9734C42.6143 42.6826 42.3243 42.4739 41.9896 42.3902C41.6548 42.3065 41.3007 42.3542 41 42.5234C40.7194 42.744 40.522 43.0534 40.4402 43.4009C40.3585 43.7484 40.3972 44.1133 40.55 44.4359L44.825 51.2984L45.5 52.3109L45.275 52.7609C45.0611 53.1081 44.7474 53.3825 44.375 53.5484C44.1456 53.7042 43.8792 53.7966 43.6026 53.8163C43.3261 53.8361 43.0492 53.7825 42.8 53.6609C42.3082 53.4815 41.905 53.1187 41.675 52.6484H41.5625L37.2875 45.5609C37.2266 45.3659 37.1223 45.1871 36.9823 45.0383C36.8423 44.8894 36.6703 44.7743 36.4793 44.7015C36.2884 44.6288 36.0834 44.6003 35.8798 44.6183C35.6763 44.6363 35.4795 44.7003 35.3042 44.8055C35.129 44.9106 34.9799 45.0542 34.8682 45.2253C34.7565 45.3964 34.6852 45.5907 34.6595 45.7934C34.6338 45.9962 34.6545 46.2021 34.72 46.3957C34.7854 46.5892 34.894 46.7654 35.0375 46.9109L39.2 53.9984L39.5375 54.5609V55.0109C39.2927 55.3305 38.9867 55.5982 38.6375 55.7984C38.1294 56.0307 37.5505 56.0548 37.0248 55.8656C36.4992 55.6763 36.0685 55.2888 35.825 54.7859L31.775 48.0359C31.5832 47.7778 31.3056 47.5967 30.9921 47.525C30.6786 47.4534 30.3499 47.496 30.065 47.6453C29.7801 47.7945 29.5579 48.0405 29.4383 48.3389C29.3187 48.6374 29.3095 48.9688 29.4125 49.2734L33.35 55.7984L33.125 56.2484C32.9872 56.4954 32.7991 56.7107 32.573 56.8805C32.3469 57.0504 32.0877 57.171 31.8122 57.2345C31.5366 57.2981 31.2508 57.3033 30.9731 57.2497C30.6955 57.1961 30.4321 57.085 30.2 56.9234C29.8529 56.7096 29.5784 56.3959 29.4125 56.0234H29.3L22.325 44.2109C22.1923 44.0033 22.0093 43.8325 21.7929 43.7145C21.5766 43.5965 21.3339 43.5351 21.0875 43.5359H15.6875V25.6484H29.3L23.9 30.9359C23.668 31.1483 23.4808 31.4049 23.3492 31.6906C23.2177 31.9763 23.1446 32.2854 23.1341 32.5998C23.1236 32.9141 23.176 33.2274 23.2882 33.5213C23.4004 33.8151 23.5702 34.0836 23.7875 34.3109L24.2375 34.6484L25.025 35.0984C26.1504 35.8724 27.4841 36.2868 28.85 36.2868C30.2159 36.2868 31.5496 35.8724 32.675 35.0984L40.2125 30.2609L50.9 48.1484C51.0298 48.3878 51.107 48.6522 51.1264 48.9238C51.1458 49.1954 51.107 49.468 51.0125 49.7234Z" fill="white"/>
<path id="Vector_2" d="M51.2374 43.8742L41.6749 28.0117C41.6003 27.8489 41.4912 27.7043 41.3553 27.5877C41.2193 27.4712 41.0597 27.3856 40.8874 27.3367C40.6949 27.2893 40.4943 27.2849 40.2998 27.3238C40.1054 27.3627 39.9219 27.4439 39.7624 27.5617L30.9874 33.1867C30.2559 33.6226 29.4202 33.8527 28.5687 33.8527C27.7171 33.8527 26.8814 33.6226 26.1499 33.1867L25.5874 32.8492L35.2624 23.5117C35.95 22.8207 36.8756 22.4183 37.8499 22.3867H47.5249C48.0311 22.3917 48.5302 22.5069 48.9874 22.7242L57.4249 26.2117V43.8742H51.2374Z" fill="white"/>
<g id="Vector_3" style="mix-blend-mode:darken">
<path d="M3.875 20.25H15.125V47.25H3.875V20.25ZM57.875 20.25H69.125V47.25H57.875V20.25Z" fill="#818CF8"/>
</g>
<path id="Vector_4" d="M50.9 48.1484L40.2125 30.2609L32.675 35.0984C31.5496 35.8724 30.2159 36.2868 28.85 36.2868C27.4841 36.2868 26.1504 35.8724 25.025 35.0984L24.2375 34.6484L23.7875 34.3109C23.5702 34.0836 23.4004 33.8151 23.2882 33.5213C23.176 33.2274 23.1236 32.9141 23.1341 32.5998C23.1446 32.2854 23.2177 31.9763 23.3492 31.6906C23.4808 31.4049 23.668 31.1483 23.9 30.9359L29.3 25.6484H15.6875V27.8984H25.925L29.75 28.1234C28.85 29.0234 27.8375 27.5609 24.125 32.6234C25.2437 33.3712 26.4085 34.0476 27.6125 34.6484V34.8734C29.975 36.3359 31.4375 34.6484 32.1125 34.8734L37.7375 30.3734L48.7625 50.3984C48.875 50.5109 48.875 50.5109 48.875 50.6234L49.55 51.0734H49.6625C50.7875 51.4109 50.7875 50.8484 51.125 49.7234C51.2027 49.4601 51.2229 49.1832 51.184 48.9114C51.1452 48.6397 51.0483 48.3794 50.9 48.1484Z" fill="#DEE0E2"/>
<path id="Vector_5" d="M68.9 19.5742H58.2125C57.8545 19.5742 57.5111 19.7165 57.2579 19.9696C57.0047 20.2228 56.8625 20.5662 56.8625 20.9242V23.6242L49.6625 20.6992C48.9177 20.3772 48.111 20.2235 47.3 20.2492H38.075C37.2682 20.2249 36.4647 20.3617 35.7114 20.6514C34.9581 20.9411 34.2701 21.3781 33.6875 21.9367L32.1125 23.5117H16.1375V20.9242C16.1375 20.5662 15.9953 20.2228 15.7421 19.9696C15.4889 19.7165 15.1455 19.5742 14.7875 19.5742H4.1C3.92272 19.5742 3.74717 19.6091 3.58338 19.677C3.41959 19.7448 3.27077 19.8443 3.14541 19.9696C3.02005 20.095 2.92061 20.2438 2.85276 20.4076C2.78492 20.5714 2.75 20.7469 2.75 20.9242V47.1367C2.75 47.4948 2.89223 47.8381 3.14541 48.0913C3.39858 48.3445 3.74196 48.4867 4.1 48.4867H14.7875C15.1455 48.4867 15.4889 48.3445 15.7421 48.0913C15.9953 47.8381 16.1375 47.4948 16.1375 47.1367V46.1242H20.75L27.05 56.6992C27.4818 57.4267 28.089 58.0344 28.8161 58.4667C29.5433 58.8991 30.3671 59.1423 31.2125 59.1742C31.9365 59.1612 32.6478 58.982 33.2915 58.6504C33.9352 58.3188 34.4941 57.8437 34.925 57.2617L35.9375 57.7117L37.5125 57.9367C38.3049 57.922 39.0808 57.7082 39.7688 57.315C40.4569 56.9218 41.035 56.3619 41.45 55.6867H41.675L43.1375 55.9117C43.951 55.9272 44.7542 55.7273 45.4655 55.3321C46.1768 54.9369 46.7709 54.3607 47.1875 53.6617H47.3V53.3242L48.5375 53.5492C49.1528 53.5494 49.7619 53.4265 50.329 53.1877C50.8961 52.9489 51.4096 52.599 51.8395 52.1587C52.2693 51.7184 52.6067 51.1966 52.8317 50.6239C53.0568 50.0513 53.165 49.4393 53.15 48.8242C53.164 48.123 53.0097 47.4285 52.7 46.7992L52.3625 46.2367H56.75V47.2492C56.75 47.6073 56.8922 47.9506 57.1454 48.2038C57.3986 48.457 57.742 48.5992 58.1 48.5992H68.7875C68.9839 48.6164 69.1816 48.5904 69.3669 48.5229C69.5521 48.4555 69.7203 48.3483 69.8597 48.2089C69.9991 48.0696 70.1063 47.9013 70.1737 47.7161C70.2411 47.5309 70.2672 47.3331 70.25 47.1367V20.9242C70.25 20.7469 70.2151 20.5714 70.1472 20.4076C70.0794 20.2438 69.98 20.095 69.8546 19.9696C69.7292 19.8443 69.5804 19.7448 69.4166 19.677C69.2528 19.6091 69.0773 19.5742 68.9 19.5742ZM13.6625 46.1242H5V21.8242H13.6625V46.1242ZM51.0125 49.7242C50.9358 49.9857 50.8072 50.229 50.6342 50.4396C50.4613 50.6502 50.2476 50.8237 50.006 50.9498C49.7644 51.0758 49.4999 51.1518 49.2282 51.1732C48.9565 51.1946 48.6833 51.1609 48.425 51.0742H48.3125C47.8067 50.858 47.4038 50.455 47.1875 49.9492H47.075L42.8 42.9742C42.6143 42.6834 42.3243 42.4747 41.9896 42.391C41.6548 42.3073 41.3007 42.355 41 42.5242C40.7194 42.7448 40.522 43.0542 40.4402 43.4017C40.3585 43.7492 40.3972 44.1141 40.55 44.4367L44.825 51.2992L45.5 52.3117L45.275 52.7617C45.0611 53.1088 44.7474 53.3833 44.375 53.5492C44.1456 53.7049 43.8792 53.7973 43.6026 53.8171C43.3261 53.8369 43.0492 53.7833 42.8 53.6617C42.3082 53.4823 41.905 53.1194 41.675 52.6492H41.5625L37.2875 45.5617C37.2266 45.3666 37.1223 45.1879 36.9823 45.0391C36.8423 44.8902 36.6703 44.775 36.4793 44.7023C36.2884 44.6295 36.0834 44.6011 35.8798 44.6191C35.6763 44.6371 35.4795 44.7011 35.3042 44.8062C35.129 44.9114 34.9799 45.0549 34.8682 45.2261C34.7565 45.3972 34.6852 45.5915 34.6595 45.7942C34.6338 45.9969 34.6545 46.2029 34.72 46.3964C34.7854 46.59 34.894 46.7662 35.0375 46.9117L39.2 53.9992L39.5375 54.5617V55.0117C39.2927 55.3313 38.9867 55.5989 38.6375 55.7992C38.1294 56.0315 37.5505 56.0556 37.0248 55.8664C36.4992 55.6771 36.0685 55.2896 35.825 54.7867L31.775 48.0367C31.5832 47.7786 31.3056 47.5974 30.9921 47.5258C30.6786 47.4542 30.3499 47.4968 30.065 47.646C29.7801 47.7952 29.5579 48.0412 29.4383 48.3397C29.3187 48.6382 29.3095 48.9696 29.4125 49.2742L33.35 55.7992L33.125 56.2492C32.9872 56.4961 32.7991 56.7115 32.573 56.8813C32.3469 57.0511 32.0877 57.1717 31.8122 57.2353C31.5366 57.2989 31.2508 57.3041 30.9731 57.2505C30.6955 57.1969 30.4321 57.0858 30.2 56.9242C29.8529 56.7103 29.5784 56.3967 29.4125 56.0242H29.3L22.325 44.2117C22.1923 44.0041 22.0093 43.8333 21.7929 43.7153C21.5766 43.5973 21.3339 43.5359 21.0875 43.5367H15.6875V25.6492H29.3L23.9 30.9367C23.668 31.1491 23.4808 31.4057 23.3492 31.6914C23.2177 31.9771 23.1446 32.2862 23.1341 32.6006C23.1236 32.9149 23.176 33.2282 23.2882 33.522C23.4004 33.8159 23.5702 34.0844 23.7875 34.3117L24.2375 34.6492L25.025 35.0992C26.1504 35.8732 27.4841 36.2876 28.85 36.2876C30.2159 36.2876 31.5496 35.8732 32.675 35.0992L40.2125 30.2617L50.9 48.1492C51.0298 48.3886 51.107 48.6529 51.1264 48.9246C51.1458 49.1962 51.107 49.4688 51.0125 49.7242ZM51.2375 43.8742L41.675 28.0117C41.6004 27.8489 41.4913 27.7043 41.3554 27.5877C41.2194 27.4712 41.0598 27.3856 40.8875 27.3367C40.695 27.2893 40.4944 27.2849 40.2999 27.3238C40.1055 27.3627 39.922 27.4439 39.7625 27.5617L30.9875 33.1867C30.256 33.6226 29.4203 33.8527 28.5688 33.8527C27.7172 33.8527 26.8815 33.6226 26.15 33.1867L25.5875 32.8492L35.2625 23.5117C35.9501 22.8207 36.8757 22.4183 37.85 22.3867H47.525C48.0312 22.3917 48.5303 22.5069 48.9875 22.7242L57.425 26.2117V43.8742H51.2375ZM68 46.1242H59.3375V21.8242H68V46.1242Z" fill="#3730A3"/>
</g>
</g>
</g>
</svg>
