<svg width="73" height="72" viewBox="0 0 73 72" fill="none" xmlns="http://www.w3.org/2000/svg">
<g id="lifestyle.112b348.svg">
<g id="Group">
<g id="stroke">
<path id="Vector" d="M14 22.7246H53.0375V59.6246C53.0375 60.8181 52.5634 61.9627 51.7195 62.8066C50.8756 63.6505 49.731 64.1246 48.5375 64.1246H18.5C17.3065 64.1246 16.1619 63.6505 15.318 62.8066C14.4741 61.9627 14 60.8181 14 59.6246V22.7246Z" fill="white"/>
<path id="Vector_2" d="M14 22.7246V27.4496H48.3125V62.8871C48.3125 63.3371 48.2 63.6746 48.2 64.0121C50.225 63.5621 53.0375 61.6496 53.0375 59.3996V22.7246H14Z" fill="#DEE0E2"/>
<path id="Vector_3" d="M24.6875 22.7246V32.1746M15.125 22.7246H51.9125C52.2109 22.7246 52.497 22.8431 52.708 23.0541C52.919 23.2651 53.0375 23.5512 53.0375 23.8496V58.4996C53.0375 59.9915 52.4449 61.4222 51.39 62.4771C50.3351 63.532 48.9043 64.1246 47.4125 64.1246H19.625C18.1332 64.1246 16.7024 63.532 15.6475 62.4771C14.5926 61.4222 14 59.9915 14 58.4996V23.8496C14 23.5512 14.1185 23.2651 14.3295 23.0541C14.5405 22.8431 14.8266 22.7246 15.125 22.7246Z" stroke="#3730A3" stroke-width="1.575" stroke-miterlimit="10"/>
<path id="Vector_4" d="M28.8501 32.7383H20.4126C19.7913 32.7383 19.2876 33.242 19.2876 33.8633V44.6183C19.2876 45.2396 19.7913 45.7433 20.4126 45.7433H28.8501C29.4714 45.7433 29.9751 45.2396 29.9751 44.6183V33.8633C29.9751 33.242 29.4714 32.7383 28.8501 32.7383Z" stroke="#3730A3" stroke-width="1.6725" stroke-miterlimit="10"/>
<g id="Vector_5" style="mix-blend-mode:darken">
<path d="M28.8501 32.7383H20.4126C19.7913 32.7383 19.2876 33.242 19.2876 33.8633V44.6183C19.2876 45.2396 19.7913 45.7433 20.4126 45.7433H28.8501C29.4714 45.7433 29.9751 45.2396 29.9751 44.6183V33.8633C29.9751 33.242 29.4714 32.7383 28.8501 32.7383Z" fill="#818CF8"/>
</g>
<path id="Vector_6" d="M53.0375 32.175C55.6684 32.446 58.1055 33.683 59.8773 35.6467C61.6491 37.6104 62.6299 40.1613 62.6299 42.8062C62.6299 45.4512 61.6491 48.0021 59.8773 49.9658C58.1055 51.9295 55.6684 53.1665 53.0375 53.4375M34.1375 6.1875V18" stroke="#3730A3" stroke-width="1.575" stroke-miterlimit="10"/>
<path id="Vector_7" d="M41.2248 8.55078V18.0008M27.0498 8.55078V18.0008" stroke="#3730A3" stroke-width="1.41" stroke-miterlimit="10"/>
</g>
</g>
</g>
</svg>
