<svg width="72" height="72" viewBox="0 0 72 72" fill="none" xmlns="http://www.w3.org/2000/svg">
<g id="graphics-design.91dfe44.svg">
<g id="Group">
<g id="white">
<path id="Vector" d="M20.25 33.75L22.5 57.375H21.375V63H52.875V57.375H50.625L52.875 33.75H20.25Z" fill="white"/>
<path id="Vector_2" d="M52.875 33.75H20.25L20.475 37.125H49.5L47.25 58.5H49.5V63H52.875V57.375H50.625L52.875 33.75Z" fill="#DEE0E2"/>
</g>
<g id="stroke">
<path id="Vector_3" d="M44.4373 33.4129L55.9123 11.0254L61.9873 14.1754L51.9748 33.4129" stroke="#3730A3" stroke-width="1.5" stroke-miterlimit="10"/>
<path id="Vector_4" d="M57.3749 32.8504L63.3374 21.1504L53.3249 15.9754M16.7624 24.6379L21.8249 33.4129M31.2749 33.4129L23.7374 20.1379M23.6249 21.1504L17.0999 25.3129M26.5499 33.4129L21.0374 23.0629M41.0624 33.4129L41.1749 19.3504L37.3499 11.1379L33.7499 19.6879V33.4129M40.6124 20.0254L33.7499 20.3629M37.4624 33.4129L37.2374 21.2629M51.2999 57.1504L53.2124 33.7504H20.4749L22.2749 57.1504M20.6999 63.2254H52.9874V57.6004H20.6999V63.2254ZM13.1624 9.33789C12.0543 12.5719 11.9757 16.0699 12.9374 19.3504C14.6249 23.9629 18.6749 24.9754 21.8249 21.2629C22.1915 20.9286 22.459 20.4998 22.5979 20.0235C22.7369 19.5472 22.7418 19.0418 22.6124 18.5629C21.3749 14.9629 17.7749 16.0879 13.1624 9.33789Z" stroke="#3730A3" stroke-width="1.5" stroke-miterlimit="10"/>
</g>
<g id="flah" style="mix-blend-mode:darken">
<path d="M16.8749 25.8754L22.4999 33.7504H31.4999L24.7499 21.3754L16.8749 25.8754ZM13.1624 9.33789C12.0543 12.5719 11.9757 16.0699 12.9374 19.3504C14.6249 23.9629 18.6749 24.9754 21.8249 21.2629C22.1915 20.9286 22.459 20.4998 22.5979 20.0235C22.7369 19.5472 22.7418 19.0418 22.6124 18.5629C21.3749 14.9629 17.7749 16.0879 13.1624 9.33789ZM43.8749 33.7504L56.2499 11.2504L61.8749 14.6254L51.7499 33.7504H43.8749ZM33.7499 33.7504H41.6249L40.4999 20.2504L37.1249 11.2504L33.7499 20.2504V33.7504Z" fill="#818CF8"/>
</g>
</g>
</g>
</svg>
