<svg width="72" height="72" viewBox="0 0 72 72" fill="none" xmlns="http://www.w3.org/2000/svg">
<g id="programming.6ee5a90.svg">
<g id="Group">
<g id="white">
<path id="Vector" d="M9 23.625H63V59.625H9V23.625Z" fill="white"/>
<path id="Vector_2" d="M9 23.625V27H58.5V59.625H63V23.625H9Z" fill="#DEE0E2"/>
</g>
<g id="stroke">
<path id="Vector_3" d="M28.2375 34.7637L19.6875 41.7387L28.2375 48.6012M43.7625 34.7637L52.3125 41.7387L43.7625 48.6012M38.7 31.3887L34.3125 51.9762" stroke="#3730A3" stroke-width="1.5" stroke-miterlimit="10"/>
<path id="Vector_4" d="M62.4375 23.2879H9.5625M62.4375 12.7129H9.5625V59.2879H62.4375V12.7129Z" stroke="#3730A3" stroke-width="1.5" stroke-miterlimit="10"/>
<path id="Vector_5" d="M55.8 17.3254C55.6479 17.3074 55.4936 17.324 55.3489 17.3741C55.2042 17.4243 55.0727 17.5066 54.9644 17.6149C54.8561 17.7232 54.7738 17.8547 54.7237 17.9994C54.6735 18.1441 54.6569 18.2984 54.675 18.4504C54.675 18.7488 54.7935 19.035 55.0045 19.2459C55.2154 19.4569 55.5016 19.5754 55.8 19.5754C56.0898 19.5501 56.3615 19.4234 56.5672 19.2177C56.7729 19.012 56.8996 18.7403 56.925 18.4504C56.925 18.1521 56.8064 17.8659 56.5955 17.655C56.3845 17.444 56.0983 17.3254 55.8 17.3254ZM48.2625 17.3254C48.1104 17.3074 47.9561 17.324 47.8114 17.3741C47.6667 17.4243 47.5352 17.5066 47.4269 17.6149C47.3186 17.7232 47.2363 17.8547 47.1862 17.9994C47.136 18.1441 47.1194 18.2984 47.1375 18.4504C47.1375 18.7488 47.256 19.035 47.467 19.2459C47.6779 19.4569 47.9641 19.5754 48.2625 19.5754C48.5523 19.5501 48.824 19.4234 49.0297 19.2177C49.2354 19.012 49.3621 18.7403 49.3875 18.4504C49.3875 18.1521 49.2689 17.8659 49.058 17.655C48.847 17.444 48.5608 17.3254 48.2625 17.3254Z" stroke="#3730A3" stroke-width="1.5" stroke-miterlimit="10"/>
</g>
<g id="flah" style="mix-blend-mode:darken">
<path d="M9 12.375H63V23.625H9V12.375Z" fill="#818CF8"/>
</g>
</g>
</g>
</svg>
