<svg width="23" height="22" viewBox="0 0 23 22" fill="none" xmlns="http://www.w3.org/2000/svg">
<g id="HiLightningBolt">
<path id="Vector" fill-rule="evenodd" clip-rule="evenodd" d="M12.9301 1.15144C13.1534 1.22167 13.3484 1.3613 13.4869 1.55003C13.6254 1.73877 13.7001 1.96675 13.7001 2.20084V7.70084H18.1001C18.3013 7.70075 18.4986 7.75585 18.6707 7.86015C18.8428 7.96444 18.9829 8.11394 19.076 8.29236C19.169 8.47078 19.2113 8.6713 19.1982 8.87209C19.1852 9.07287 19.1173 9.26624 19.0021 9.43114L11.302 20.4311C11.168 20.6231 10.9763 20.7674 10.7546 20.8428C10.533 20.9183 10.293 20.9211 10.0697 20.8508C9.84639 20.7805 9.65132 20.6407 9.51289 20.4519C9.37446 20.2631 9.2999 20.035 9.30005 19.8008V14.3008H4.90005C4.69884 14.3009 4.50146 14.2458 4.32939 14.1415C4.15732 14.0372 4.01715 13.8877 3.92414 13.7093C3.83113 13.5309 3.78884 13.3304 3.80187 13.1296C3.8149 12.9288 3.88276 12.7354 3.99805 12.5705L11.6981 1.57054C11.8323 1.37891 12.0241 1.23506 12.2456 1.15989C12.4672 1.08472 12.7069 1.08214 12.9301 1.15254V1.15144Z" fill="#4F46E5"/>
</g>
</svg>
