<svg width="20" height="20" viewBox="0 0 20 20" fill="none" xmlns="http://www.w3.org/2000/svg">
<g id="devicon:google" clip-path="url(#clip0_90_4418)">
<path id="Vector" d="M6.68805 0.630764C4.7697 1.29627 3.11532 2.55941 1.96791 4.23466C0.8205 5.90992 0.240538 7.90897 0.313213 9.9382C0.385889 11.9674 1.10737 13.9199 2.37168 15.5088C3.636 17.0976 5.3765 18.2392 7.33754 18.7657C8.9274 19.176 10.5931 19.194 12.1915 18.8182C13.6394 18.493 14.9781 17.7973 16.0764 16.7992C17.2195 15.7288 18.0492 14.367 18.4764 12.8603C18.9405 11.2217 19.0231 9.49867 18.7179 7.82326H9.79V11.5268H14.9604C14.8571 12.1174 14.6357 12.6812 14.3094 13.1843C13.9831 13.6874 13.5586 14.1195 13.0615 14.4548C12.4302 14.8726 11.7184 15.1536 10.972 15.2798C10.2234 15.419 9.45559 15.419 8.70702 15.2798C7.94826 15.1231 7.2305 14.8099 6.59955 14.3603C5.58579 13.6426 4.8246 12.6231 4.42459 11.4473C4.01793 10.2493 4.01793 8.95068 4.42459 7.75276C4.70932 6.91308 5.18003 6.14856 5.80157 5.51626C6.51284 4.77938 7.41334 4.25266 8.40426 3.99388C9.39518 3.73509 10.4382 3.75426 11.419 4.04926C12.1852 4.28435 12.8858 4.69528 13.4649 5.24926C14.0479 4.66926 14.6299 4.08776 15.2109 3.50476C15.5109 3.19126 15.8379 2.89276 16.1334 2.57176C15.2492 1.74904 14.2114 1.10882 13.0795 0.687764C11.018 -0.0607503 8.76249 -0.0808659 6.68805 0.630764Z" fill="white"/>
<path id="Vector_2" d="M6.68838 0.631493C8.76265 -0.0806207 11.0182 -0.0610345 13.0798 0.686993C14.212 1.11091 15.2493 1.75421 16.1322 2.57999C15.8322 2.90099 15.5157 3.20099 15.2098 3.51299C14.6278 4.09399 14.0463 4.67299 13.4653 5.24999C12.8861 4.69601 12.1855 4.28507 11.4193 4.04999C10.4389 3.75395 9.39587 3.73368 8.40469 3.9914C7.4135 4.24913 6.51245 4.77488 5.8004 5.51099C5.17886 6.14329 4.70815 6.90781 4.42342 7.74749L1.31396 5.33999C2.42696 3.13283 4.35404 1.44453 6.68838 0.631493Z" fill="#4F46E5"/>
<path id="Vector_3" d="M0.488727 7.72484C0.655734 6.8965 0.933209 6.09433 1.31371 5.33984L4.42317 7.75334C4.01651 8.95127 4.01651 10.2499 4.42317 11.4478C3.38718 12.2478 2.3507 13.0518 1.31371 13.8598C0.361455 11.9643 0.0710326 9.80459 0.488727 7.72484Z" fill="#F8BD00"/>
<path id="Vector_4" d="M9.79022 7.82227H18.7181C19.0233 9.49767 18.9407 11.2207 18.4766 12.8593C18.0494 14.366 17.2197 15.7278 16.0766 16.7983C15.0731 16.0153 14.0652 15.2383 13.0617 14.4553C13.5592 14.1197 13.9838 13.6871 14.3101 13.1835C14.6364 12.6798 14.8577 12.1155 14.9606 11.5243H9.79022C9.78872 10.2913 9.79022 9.05676 9.79022 7.82227Z" fill="#587DBD"/>
<path id="Vector_5" d="M1.3125 13.8593C2.34948 13.0593 3.38597 12.2553 4.42195 11.4473C4.82276 12.6236 5.58504 13.6431 6.59992 14.3603C7.23283 14.8078 7.95214 15.1184 8.71189 15.2723C9.46046 15.4115 10.2283 15.4115 10.9769 15.2723C11.7233 15.1461 12.435 14.8651 13.0663 14.4473C14.0698 15.2303 15.0778 16.0073 16.0813 16.7903C14.9831 17.7888 13.6444 18.4851 12.1963 18.8108C10.598 19.1865 8.93227 19.1685 7.34241 18.7583C6.08498 18.4225 4.91046 17.8307 3.89246 17.0198C2.81507 16.1642 1.93504 15.0861 1.3125 13.8593Z" fill="#319F43"/>
</g>
<defs>
<clipPath id="clip0_90_4418">
<rect width="19.1997" height="19.2" fill="white"/>
</clipPath>
</defs>
</svg>
