<svg width="25" height="24" viewBox="0 0 25 24" fill="none" xmlns="http://www.w3.org/2000/svg">
<g id="HiBriefcase">
<path id="Vector" fill-rule="evenodd" clip-rule="evenodd" d="M7.6999 7.20039V6.00039C7.6999 5.04561 8.07919 4.12994 8.75432 3.45481C9.42945 2.77968 10.3451 2.40039 11.2999 2.40039H13.6999C14.6547 2.40039 15.5704 2.77968 16.2455 3.45481C16.9206 4.12994 17.2999 5.04561 17.2999 6.00039V7.20039H19.6999C20.3364 7.20039 20.9469 7.45325 21.397 7.90333C21.847 8.35342 22.0999 8.96387 22.0999 9.60039V13.8844C19.0275 15.0229 15.7765 15.604 12.4999 15.6004C9.2233 15.604 5.97234 15.0229 2.8999 13.8844V9.60039C2.8999 8.96387 3.15276 8.35342 3.60285 7.90333C4.05293 7.45325 4.66338 7.20039 5.2999 7.20039H7.6999ZM10.0999 6.00039C10.0999 5.68213 10.2263 5.37691 10.4514 5.15186C10.6764 4.92682 10.9816 4.80039 11.2999 4.80039H13.6999C14.0182 4.80039 14.3234 4.92682 14.5484 5.15186C14.7735 5.37691 14.8999 5.68213 14.8999 6.00039V7.20039H10.0999V6.00039ZM11.2999 12.0004C11.2999 11.6821 11.4263 11.3769 11.6514 11.1519C11.8764 10.9268 12.1816 10.8004 12.4999 10.8004H12.5119C12.8302 10.8004 13.1354 10.9268 13.3604 11.1519C13.5855 11.3769 13.7119 11.6821 13.7119 12.0004C13.7119 12.3187 13.5855 12.6239 13.3604 12.8489C13.1354 13.074 12.8302 13.2004 12.5119 13.2004H12.4999C12.1816 13.2004 11.8764 13.074 11.6514 12.8489C11.4263 12.6239 11.2999 12.3187 11.2999 12.0004Z" fill="#4F46E5"/>
<path id="Vector_2" d="M2.8999 16.4297V19.1993C2.8999 19.8358 3.15276 20.4463 3.60285 20.8963C4.05293 21.3464 4.66338 21.5993 5.2999 21.5993H19.6999C20.3364 21.5993 20.9469 21.3464 21.397 20.8963C21.847 20.4463 22.0999 19.8358 22.0999 19.1993V16.4297C19.0067 17.4722 15.764 18.0024 12.4999 17.9993C9.1447 17.9993 5.9155 17.4473 2.8999 16.4297Z" fill="#4F46E5"/>
</g>
</svg>
