<svg width="25" height="24" viewBox="0 0 25 24" fill="none" xmlns="http://www.w3.org/2000/svg">
<g id="HiLightBulb">
<path id="Vector" d="M13.6999 3.60039C13.6999 3.28213 13.5735 2.97691 13.3484 2.75186C13.1234 2.52682 12.8182 2.40039 12.4999 2.40039C12.1816 2.40039 11.8764 2.52682 11.6514 2.75186C11.4263 2.97691 11.2999 3.28213 11.2999 3.60039V4.80039C11.2999 5.11865 11.4263 5.42388 11.6514 5.64892C11.8764 5.87396 12.1816 6.00039 12.4999 6.00039C12.8182 6.00039 13.1234 5.87396 13.3484 5.64892C13.5735 5.42388 13.6999 5.11865 13.6999 4.80039V3.60039ZM19.2883 6.90879C19.5069 6.68247 19.6278 6.37935 19.6251 6.06471C19.6224 5.75007 19.4962 5.4491 19.2737 5.22661C19.0512 5.00412 18.7502 4.87792 18.4356 4.87518C18.1209 4.87245 17.8178 4.9934 17.5915 5.21199L16.7431 6.06039C16.5245 6.28671 16.4036 6.58984 16.4063 6.90447C16.409 7.21911 16.5352 7.52008 16.7577 7.74257C16.9802 7.96506 17.2812 8.09127 17.5958 8.094C17.9105 8.09673 18.2136 7.97578 18.4399 7.75719L19.2883 6.90879ZM22.0999 12.0004C22.0999 12.3187 21.9735 12.6239 21.7484 12.8489C21.5234 13.074 21.2182 13.2004 20.8999 13.2004H19.6999C19.3816 13.2004 19.0764 13.074 18.8514 12.8489C18.6263 12.6239 18.4999 12.3187 18.4999 12.0004C18.4999 11.6821 18.6263 11.3769 18.8514 11.1519C19.0764 10.9268 19.3816 10.8004 19.6999 10.8004H20.8999C21.2182 10.8004 21.5234 10.9268 21.7484 11.1519C21.9735 11.3769 22.0999 11.6821 22.0999 12.0004ZM6.5599 7.75719C6.6706 7.8718 6.80301 7.96322 6.94942 8.02611C7.09582 8.089 7.25329 8.12211 7.41262 8.12349C7.57196 8.12488 7.72997 8.09451 7.87745 8.03418C8.02492 7.97384 8.15891 7.88474 8.27158 7.77207C8.38425 7.65939 8.47335 7.52541 8.53369 7.37794C8.59403 7.23046 8.62439 7.07244 8.623 6.91311C8.62162 6.75377 8.58851 6.59631 8.52562 6.44991C8.46273 6.3035 8.37132 6.17109 8.2567 6.06039L7.4083 5.21199C7.18198 4.9934 6.87886 4.87245 6.56422 4.87518C6.24958 4.87792 5.94861 5.00412 5.72612 5.22661C5.50363 5.4491 5.37743 5.75007 5.37469 6.06471C5.37196 6.37935 5.49291 6.68247 5.7115 6.90879L6.5599 7.75719ZM6.4999 12.0004C6.4999 12.3187 6.37347 12.6239 6.14843 12.8489C5.92339 13.074 5.61816 13.2004 5.2999 13.2004H4.0999C3.78164 13.2004 3.47642 13.074 3.25137 12.8489C3.02633 12.6239 2.8999 12.3187 2.8999 12.0004C2.8999 11.6821 3.02633 11.3769 3.25137 11.1519C3.47642 10.9268 3.78164 10.8004 4.0999 10.8004H5.2999C5.61816 10.8004 5.92339 10.9268 6.14843 11.1519C6.37347 11.3769 6.4999 11.6821 6.4999 12.0004ZM10.0999 19.2004V18.0004H14.8999V19.2004C14.8999 19.8369 14.647 20.4474 14.197 20.8974C13.7469 21.3475 13.1364 21.6004 12.4999 21.6004C11.8634 21.6004 11.2529 21.3475 10.8028 20.8974C10.3528 20.4474 10.0999 19.8369 10.0999 19.2004ZM14.8999 16.8004C14.9179 16.3924 15.1495 16.0252 15.4723 15.7696C16.2555 15.1519 16.8268 14.3055 17.1069 13.3482C17.3869 12.3908 17.3617 11.37 17.0348 10.4276C16.7079 9.48519 16.0955 8.66804 15.2828 8.08973C14.4701 7.51141 13.4974 7.20066 12.4999 7.20066C11.5024 7.20066 10.5297 7.51141 9.71699 8.08973C8.90426 8.66804 8.29189 9.48519 7.96499 10.4276C7.63809 11.37 7.6129 12.3908 7.89293 13.3482C8.17296 14.3055 8.74428 15.1519 9.5275 15.7696C9.8515 16.0252 10.0819 16.3924 10.0987 16.8004H14.9011H14.8999Z" fill="#4F46E5"/>
</g>
</svg>
