<svg width="129" height="24" viewBox="0 0 129 24" fill="none" xmlns="http://www.w3.org/2000/svg">
<g clip-path="url(#clip0_25_544)">
<path d="M32.9229 20.4933C32.6089 20.4933 32.3545 20.2529 32.3545 19.9564V3.04565C32.3545 2.74914 32.6089 2.50879 32.9229 2.50879H37.9873C38.2169 2.50879 38.424 2.63935 38.512 2.83969L42.7123 12.3897C42.7711 12.5229 42.9086 12.6097 43.0613 12.6097C43.2146 12.6097 43.3527 12.5222 43.4109 12.3883L47.5592 2.8418C47.6467 2.64034 47.8546 2.50879 48.0851 2.50879H53.2541C53.5681 2.50879 53.8225 2.74914 53.8225 3.04565V19.9564C53.8225 20.2529 53.5681 20.4933 53.2541 20.4933H50.0813C49.7673 20.4933 49.5129 20.2529 49.5129 19.9564V5.40175C49.5129 5.26355 49.6381 5.15494 49.7838 5.16668C49.9524 5.18026 50.0582 5.34487 49.9932 5.49239L45.1362 16.5165C45.048 16.7167 44.8411 16.8471 44.6114 16.8471H41.2188C40.9896 16.8471 40.7829 16.7171 40.6944 16.5174L35.824 5.52029C35.753 5.35958 35.8689 5.18012 36.0529 5.1665C36.2103 5.15484 36.3448 5.27237 36.3448 5.42156V19.9564C36.3448 20.2529 36.0904 20.4933 35.7765 20.4933H32.9229Z" fill="#222222"/>
<path d="M65.0404 20.9613C63.7637 20.9613 62.6286 20.7806 61.6353 20.4193C60.6422 20.0415 59.7999 19.5324 59.1081 18.8917C58.4342 18.2513 57.9199 17.5204 57.5652 16.6992C57.2105 15.8616 57.0332 14.9829 57.0332 14.0631V13.4965C57.0332 12.5603 57.2105 11.6734 57.5652 10.8358C57.9377 9.98171 58.4697 9.2344 59.1614 8.59386C59.8707 7.95331 60.7221 7.45237 61.7153 7.09105C62.7084 6.71328 63.8167 6.52441 65.0404 6.52441C66.2998 6.52441 67.417 6.71328 68.3923 7.09105C69.3855 7.45237 70.228 7.95331 70.9197 8.59386C71.6112 9.2344 72.1434 9.98171 72.5157 10.8358C72.8881 11.6734 73.0744 12.5603 73.0744 13.4965V14.0631C73.0744 14.9829 72.897 15.8616 72.5424 16.6992C72.1877 17.5204 71.6644 18.2513 70.9727 18.8917C70.2988 19.5324 69.4654 20.0415 68.4723 20.4193C67.4791 20.7806 66.3352 20.9613 65.0404 20.9613ZM65.0404 17.6354C65.8741 17.6354 66.5658 17.4711 67.1156 17.1426C67.6652 16.8142 68.082 16.3543 68.3658 15.763C68.6672 15.1717 68.818 14.5148 68.818 13.7921C68.818 13.0202 68.6672 12.3468 68.3658 11.7719C68.0644 11.1807 67.6298 10.7126 67.0623 10.3677C66.5125 10.0228 65.8386 9.8503 65.0404 9.8503C64.2603 9.8503 63.5862 10.0228 63.0187 10.3677C62.4511 10.7126 62.0167 11.1807 61.7153 11.7719C61.4315 12.3468 61.2896 13.0202 61.2896 13.7921C61.2896 14.5148 61.4315 15.1717 61.7153 15.763C61.9989 16.3543 62.4246 16.8142 62.9922 17.1426C63.5596 17.4711 64.2424 17.6354 65.0404 17.6354Z" fill="#222222"/>
<path d="M81.5783 20.9122C79.5034 20.9122 77.8807 20.5182 76.71 19.7297C75.6972 19.0476 75.096 18.1256 74.9064 16.9637C74.8571 16.6609 75.1191 16.4039 75.4435 16.4039H78.1395C78.4193 16.4039 78.6489 16.6028 78.7757 16.8385C78.9145 17.0968 79.1394 17.338 79.4501 17.5618C79.9467 17.8903 80.6827 18.0545 81.6581 18.0545C82.403 18.0545 83.0148 17.9395 83.4937 17.7096C83.9903 17.4632 84.2385 17.1183 84.2385 16.6749C84.2385 16.2807 84.0522 15.9686 83.68 15.7387C83.3075 15.4923 82.6423 15.3199 81.6848 15.2213L80.5408 15.1228C78.7851 14.9585 77.4639 14.5069 76.577 13.7678C75.7082 13.0287 75.2735 12.0843 75.2735 10.9346C75.2735 9.98202 75.5306 9.18545 76.045 8.5449C76.5594 7.90436 77.2687 7.41985 78.1732 7.09136C79.0955 6.76288 80.1418 6.59863 81.3123 6.59863C83.1921 6.59863 84.7085 6.9846 85.8612 7.75653C86.8621 8.41242 87.4485 9.32825 87.6205 10.504C87.6646 10.805 87.4036 11.0578 87.0819 11.0578H84.3815C84.1006 11.0578 83.8721 10.8574 83.752 10.6173C83.6252 10.3635 83.4238 10.1408 83.1478 9.94916C82.7222 9.6371 82.0927 9.48108 81.2591 9.48108C80.6028 9.48108 80.0797 9.59603 79.6896 9.82599C79.2993 10.0559 79.1044 10.368 79.1044 10.7622C79.1044 11.1399 79.2728 11.4273 79.6097 11.6244C79.9467 11.8215 80.4965 11.9611 81.2591 12.0432L82.403 12.1418C84.1941 12.3224 85.5863 12.7823 86.5796 13.5214C87.5727 14.2605 88.0693 15.2542 88.0693 16.5024C88.0693 17.4057 87.8033 18.1941 87.2711 18.8675C86.7391 19.5245 85.9855 20.0336 85.0099 20.3949C84.0346 20.7399 82.8907 20.9122 81.5783 20.9122Z" fill="#222222"/>
<path d="M100.201 20.4929C99.887 20.4929 99.6326 20.2526 99.6326 19.9561V16.841C99.6326 16.6537 99.4718 16.5018 99.2734 16.5018C99.0752 16.5018 98.9144 16.35 98.9144 16.1626V12.1658C98.9144 11.476 98.737 10.9587 98.3824 10.6138C98.0277 10.2689 97.4601 10.0964 96.6797 10.0964C96.2896 10.0964 95.7753 10.1046 95.1368 10.121C94.4983 10.1375 93.8422 10.1621 93.1683 10.1949C92.7318 10.2162 92.3214 10.2375 91.937 10.2588C91.6095 10.2769 91.3327 10.0314 91.3327 9.7216V7.46064C91.3327 7.18181 91.5585 6.94923 91.8529 6.92842C92.1327 6.90862 92.4382 6.88883 92.7693 6.86906C93.3189 6.8362 93.8866 6.81156 94.4718 6.79513C95.057 6.77872 95.6068 6.77051 96.1212 6.77051C97.6109 6.77051 98.8611 6.96759 99.8721 7.36177C100.901 7.75595 101.681 8.35544 102.213 9.16022C102.745 9.94858 103.011 10.9669 103.011 12.2151V19.9561C103.011 20.2526 102.757 20.4929 102.443 20.4929H100.201ZM94.9773 20.8378C93.9309 20.8378 93.0086 20.6654 92.2106 20.3204C91.4302 19.9756 90.8185 19.4827 90.375 18.8423C89.9316 18.1853 89.71 17.4052 89.71 16.5018C89.71 15.5164 89.9849 14.7116 90.5347 14.0875C91.0845 13.4469 91.8559 12.9788 92.8491 12.6832C93.8422 12.3712 94.9862 12.2151 96.2807 12.2151H98.8248C99.1387 12.2151 99.3931 12.4555 99.3931 12.752V13.8709C99.3931 14.1674 99.1387 14.4077 98.8248 14.4077H96.2542C95.5093 14.4077 94.9329 14.5802 94.525 14.9251C94.1347 15.2536 93.9398 15.7053 93.9398 16.2801C93.9398 16.8221 94.1347 17.2656 94.525 17.6105C94.9329 17.9389 95.5093 18.1032 96.2542 18.1032C96.733 18.1032 97.1587 18.0293 97.531 17.8815C97.9212 17.7172 98.2405 17.4462 98.4887 17.0685C98.5758 16.936 98.6497 16.7853 98.7107 16.6164C98.8592 16.205 99.4375 16.0016 99.7577 16.3137C99.8641 16.4175 99.9185 16.5602 99.9003 16.7037C99.795 17.5412 99.5549 18.2541 99.1804 18.8423C98.7903 19.4827 98.2405 19.9756 97.531 20.3204C96.8394 20.6654 95.9882 20.8378 94.9773 20.8378Z" fill="#222222"/>
<path d="M107.882 20.4938C107.568 20.4938 107.314 20.2535 107.314 19.957V7.53002C107.314 7.23352 107.568 6.99316 107.882 6.99316H111.57V19.957C111.57 20.2535 111.315 20.4938 111.002 20.4938H107.882ZM105.94 9.90025C105.626 9.90025 105.372 9.6599 105.372 9.36339V7.53002C105.372 7.23352 105.626 6.99316 105.94 6.99316H111.57V9.36339C111.57 9.6599 111.315 9.90025 111.002 9.90025H105.94Z" fill="#222222"/>
<path d="M122.051 20.9613C120.792 20.9613 119.692 20.7724 118.753 20.3946C117.83 20.0005 117.059 19.4749 116.438 18.8178C115.817 18.1609 115.356 17.4219 115.055 16.6006C114.753 15.763 114.603 14.9007 114.603 14.0138V13.5457C114.603 12.626 114.762 11.7473 115.081 10.9097C115.401 10.0556 115.871 9.30009 116.491 8.64312C117.112 7.98617 117.884 7.4688 118.806 7.09105C119.746 6.71328 120.819 6.52441 122.025 6.52441C123.337 6.52441 124.499 6.76256 125.509 7.23886C126.52 7.69874 127.327 8.34749 127.93 9.18514C128.426 9.87348 128.742 10.645 128.878 11.4997C128.927 11.8058 128.664 12.0676 128.337 12.0676H125.274C124.984 12.0676 124.748 11.8588 124.664 11.5966C124.536 11.192 124.303 10.8398 123.967 10.5401C123.523 10.1131 122.876 9.89959 122.025 9.89959C121.315 9.89959 120.721 10.0638 120.242 10.3923C119.781 10.7208 119.435 11.1725 119.205 11.7473C118.974 12.3221 118.859 13.0038 118.859 13.7921C118.859 14.5148 118.965 15.1717 119.178 15.763C119.391 16.3379 119.728 16.7895 120.189 17.118C120.668 17.4301 121.289 17.5861 122.051 17.5861C122.619 17.5861 123.098 17.4958 123.488 17.3151C123.896 17.118 124.215 16.8552 124.445 16.5267C124.602 16.3088 124.72 16.0712 124.799 15.814C124.88 15.5517 125.116 15.3442 125.405 15.3442H128.453C128.777 15.3442 129.038 15.6001 128.996 15.9034C128.872 16.7929 128.552 17.5919 128.037 18.3005C127.416 19.1382 126.591 19.7951 125.563 20.2715C124.534 20.7314 123.364 20.9613 122.051 20.9613Z" fill="#222222"/>
<path d="M110.992 0.419922H107.326C107.012 0.419922 106.757 0.660282 106.757 0.956779V4.40917C106.757 4.70566 107.012 4.94603 107.326 4.94603H110.992C111.306 4.94603 111.56 4.70566 111.56 4.40917V0.956779C111.56 0.660282 111.306 0.419922 110.992 0.419922Z" fill="#222222"/>
<path d="M14.8741 8.77539H10.0411C9.41164 8.77539 8.90137 9.25737 8.90137 9.85191V14.401C8.90137 14.9955 9.41164 15.4775 10.0411 15.4775H14.8741C15.5036 15.4775 16.0138 14.9955 16.0138 14.401V9.85191C16.0138 9.25737 15.5036 8.77539 14.8741 8.77539Z" fill="#6366F1"/>
<path d="M14.9264 0.84668H10.0933C9.46388 0.84668 8.95361 1.32866 8.95361 1.9232V6.47229C8.95361 7.06683 9.46388 7.54881 10.0933 7.54881H14.9264C15.5558 7.54881 16.0661 7.06683 16.0661 6.47229V1.9232C16.0661 1.32866 15.5558 0.84668 14.9264 0.84668Z" fill="#3730A3"/>
<path d="M23.5528 0.84668H18.7198C18.0903 0.84668 17.5801 1.32866 17.5801 1.9232V6.47229C17.5801 7.06683 18.0903 7.54881 18.7198 7.54881H23.5528C24.1824 7.54881 24.6925 7.06683 24.6925 6.47229V1.9232C24.6925 1.32866 24.1824 0.84668 23.5528 0.84668Z" fill="#312E81"/>
<path d="M6.04304 8.72656H1.21002C0.580577 8.72656 0.0703125 9.20854 0.0703125 9.80308V14.3522C0.0703125 14.9467 0.580577 15.4287 1.21002 15.4287H6.04304C6.67251 15.4287 7.18275 14.9467 7.18275 14.3522V9.80308C7.18275 9.20854 6.67251 8.72656 6.04304 8.72656Z" fill="#818CF8"/>
<path d="M6.04304 16.6064H1.21002C0.580577 16.6064 0.0703125 17.0884 0.0703125 17.683V22.2321C0.0703125 22.8265 0.580577 23.3086 1.21002 23.3086H6.04304C6.67251 23.3086 7.18275 22.8265 7.18275 22.2321V17.683C7.18275 17.0884 6.67251 16.6064 6.04304 16.6064Z" fill="#A5B4FC"/>
</g>
<defs>
<clipPath id="clip0_25_544">
<rect width="129" height="23" fill="white" transform="translate(0 0.5)"/>
</clipPath>
</defs>
</svg>
