<svg width="129" height="23" viewBox="0 0 129 23" fill="none" xmlns="http://www.w3.org/2000/svg">
<g id="Logo 1" clip-path="url(#clip0_36_5007)">
<g id="Clip path group">
<g id="Group">
<path id="Vector" d="M32.9229 19.9942C32.6089 19.9942 32.3545 19.7539 32.3545 19.4574V2.54662C32.3545 2.25012 32.6089 2.00977 32.9229 2.00977H37.9873C38.2169 2.00977 38.424 2.14033 38.512 2.34067L42.7123 11.8907C42.7711 12.0238 42.9086 12.1106 43.0613 12.1106C43.2146 12.1106 43.3527 12.0232 43.4109 11.8893L47.5592 2.34278C47.6467 2.14131 47.8546 2.00977 48.0851 2.00977H53.2541C53.5681 2.00977 53.8225 2.25012 53.8225 2.54662V19.4574C53.8225 19.7539 53.5681 19.9942 53.2541 19.9942H50.0813C49.7673 19.9942 49.5129 19.7539 49.5129 19.4574V4.90273C49.5129 4.76453 49.6381 4.65592 49.7838 4.66766C49.9524 4.68124 50.0582 4.84584 49.9932 4.99337L45.1362 16.0175C45.048 16.2177 44.8411 16.3481 44.6114 16.3481H41.2188C40.9896 16.3481 40.7829 16.2181 40.6944 16.0184L35.824 5.02127C35.753 4.86055 35.8689 4.6811 36.0529 4.66748C36.2103 4.65581 36.3448 4.77335 36.3448 4.92254V19.4574C36.3448 19.7539 36.0904 19.9942 35.7765 19.9942H32.9229Z" fill="white"/>
<path id="Vector_2" d="M65.0404 20.4623C63.7637 20.4623 62.6286 20.2816 61.6353 19.9203C60.6422 19.5425 59.7999 19.0334 59.1081 18.3927C58.4342 17.7522 57.9199 17.0214 57.5652 16.2002C57.2105 15.3625 57.0332 14.4838 57.0332 13.5641V12.9975C57.0332 12.0613 57.2105 11.1744 57.5652 10.3367C57.9377 9.48268 58.4697 8.73538 59.1614 8.09483C59.8707 7.45429 60.7221 6.95335 61.7153 6.59203C62.7084 6.21426 63.8167 6.02539 65.0404 6.02539C66.2998 6.02539 67.417 6.21426 68.3923 6.59203C69.3855 6.95335 70.228 7.45429 70.9197 8.09483C71.6112 8.73538 72.1434 9.48268 72.5157 10.3367C72.8881 11.1744 73.0744 12.0613 73.0744 12.9975V13.5641C73.0744 14.4838 72.897 15.3625 72.5424 16.2002C72.1877 17.0214 71.6644 17.7522 70.9727 18.3927C70.2988 19.0334 69.4654 19.5425 68.4723 19.9203C67.4791 20.2816 66.3352 20.4623 65.0404 20.4623ZM65.0404 17.1363C65.8741 17.1363 66.5658 16.9721 67.1156 16.6436C67.6652 16.3151 68.082 15.8553 68.3658 15.264C68.6672 14.6727 68.818 14.0157 68.818 13.2931C68.818 12.5212 68.6672 11.8478 68.3658 11.2729C68.0644 10.6816 67.6298 10.2136 67.0623 9.86865C66.5125 9.52374 65.8386 9.35128 65.0404 9.35128C64.2603 9.35128 63.5862 9.52374 63.0187 9.86865C62.4511 10.2136 62.0167 10.6816 61.7153 11.2729C61.4315 11.8478 61.2896 12.5212 61.2896 13.2931C61.2896 14.0157 61.4315 14.6727 61.7153 15.264C61.9989 15.8553 62.4246 16.3151 62.9922 16.6436C63.5596 16.9721 64.2424 17.1363 65.0404 17.1363Z" fill="white"/>
<path id="Vector_3" d="M81.5783 20.4113C79.5034 20.4113 77.8807 20.0172 76.71 19.2287C75.6972 18.5466 75.096 17.6246 74.9064 16.4627C74.8571 16.1599 75.1191 15.9029 75.4435 15.9029H78.1395C78.4193 15.9029 78.6489 16.1018 78.7757 16.3375C78.9145 16.5959 79.1394 16.837 79.4501 17.0608C79.9467 17.3893 80.6827 17.5535 81.6581 17.5535C82.403 17.5535 83.0148 17.4385 83.4937 17.2086C83.9903 16.9622 84.2385 16.6173 84.2385 16.1739C84.2385 15.7797 84.0522 15.4676 83.68 15.2377C83.3075 14.9913 82.6423 14.8189 81.6848 14.7203L80.5408 14.6218C78.7851 14.4576 77.4639 14.0059 76.577 13.2668C75.7082 12.5277 75.2735 11.5833 75.2735 10.4336C75.2735 9.48104 75.5306 8.68447 76.045 8.04393C76.5594 7.40338 77.2687 6.91887 78.1732 6.59038C79.0955 6.2619 80.1418 6.09766 81.3123 6.09766C83.1921 6.09766 84.7085 6.48362 85.8612 7.25555C86.8621 7.91145 87.4485 8.82727 87.6205 10.003C87.6646 10.304 87.4036 10.5568 87.0819 10.5568H84.3815C84.1006 10.5568 83.8721 10.3564 83.752 10.1163C83.6252 9.86255 83.4238 9.63984 83.1478 9.44819C82.7222 9.13613 82.0927 8.9801 81.2591 8.9801C80.6028 8.9801 80.0797 9.09506 79.6896 9.32501C79.2993 9.55495 79.1044 9.86701 79.1044 10.2612C79.1044 10.6389 79.2728 10.9264 79.6097 11.1234C79.9467 11.3205 80.4965 11.4601 81.2591 11.5423L82.403 11.6408C84.1941 11.8215 85.5863 12.2814 86.5796 13.0204C87.5727 13.7595 88.0693 14.7532 88.0693 16.0014C88.0693 16.9048 87.8033 17.6931 87.2711 18.3666C86.7391 19.0235 85.9855 19.5326 85.0099 19.8939C84.0346 20.2389 82.8907 20.4113 81.5783 20.4113Z" fill="white"/>
<path id="Vector_4" d="M100.201 19.9919C99.887 19.9919 99.6326 19.7516 99.6326 19.4551V16.3401C99.6326 16.1527 99.4718 16.0008 99.2734 16.0008C99.0752 16.0008 98.9144 15.849 98.9144 15.6616V11.6649C98.9144 10.9751 98.737 10.4577 98.3824 10.1128C98.0277 9.76788 97.4601 9.59542 96.6797 9.59542C96.2896 9.59542 95.7753 9.60363 95.1368 9.62006C94.4983 9.63649 93.8422 9.66111 93.1683 9.69397C92.7318 9.71525 92.3214 9.73652 91.937 9.7578C91.6095 9.77591 91.3327 9.53046 91.3327 9.22062V6.95966C91.3327 6.68084 91.5585 6.44825 91.8529 6.42744C92.1327 6.40765 92.4382 6.38785 92.7693 6.36808C93.3189 6.33522 93.8866 6.31058 94.4718 6.29416C95.057 6.27775 95.6068 6.26953 96.1212 6.26953C97.6109 6.26953 98.8611 6.46661 99.8721 6.86079C100.901 7.25497 101.681 7.85446 102.213 8.65925C102.745 9.4476 103.011 10.4659 103.011 11.7141V19.4551C103.011 19.7516 102.757 19.9919 102.443 19.9919H100.201ZM94.9773 20.3368C93.9309 20.3368 93.0086 20.1644 92.2106 19.8194C91.4302 19.4746 90.8185 18.9817 90.375 18.3413C89.9316 17.6843 89.71 16.9042 89.71 16.0008C89.71 15.0154 89.9849 14.2106 90.5347 13.5865C91.0845 12.9459 91.8559 12.4779 92.8491 12.1822C93.8422 11.8702 94.9862 11.7141 96.2807 11.7141H98.8248C99.1387 11.7141 99.3931 11.9545 99.3931 12.251V13.3699C99.3931 13.6664 99.1387 13.9068 98.8248 13.9068H96.2542C95.5093 13.9068 94.9329 14.0792 94.525 14.4241C94.1347 14.7526 93.9398 15.2043 93.9398 15.7791C93.9398 16.3211 94.1347 16.7646 94.525 17.1095C94.9329 17.438 95.5093 17.6022 96.2542 17.6022C96.733 17.6022 97.1587 17.5283 97.531 17.3805C97.9212 17.2162 98.2405 16.9452 98.4887 16.5675C98.5758 16.435 98.6497 16.2843 98.7107 16.1155C98.8592 15.704 99.4375 15.5006 99.7577 15.8128C99.8641 15.9166 99.9185 16.0592 99.9003 16.2027C99.795 17.0402 99.5549 17.7531 99.1804 18.3413C98.7903 18.9817 98.2405 19.4746 97.531 19.8194C96.8394 20.1644 95.9882 20.3368 94.9773 20.3368Z" fill="white"/>
<path id="Vector_5" d="M107.882 19.9929C107.568 19.9929 107.314 19.7525 107.314 19.456V7.02905C107.314 6.73254 107.568 6.49219 107.882 6.49219H111.57V19.456C111.57 19.7525 111.315 19.9929 111.002 19.9929H107.882ZM105.94 9.39927C105.626 9.39927 105.372 9.15892 105.372 8.86241V7.02905C105.372 6.73254 105.626 6.49219 105.94 6.49219H111.57V8.86241C111.57 9.15892 111.315 9.39927 111.002 9.39927H105.94Z" fill="white"/>
<path id="Vector_6" d="M122.051 20.4623C120.792 20.4623 119.692 20.2733 118.753 19.8956C117.83 19.5015 117.059 18.9759 116.438 18.3188C115.817 17.6619 115.356 16.9228 115.055 16.1016C114.753 15.264 114.603 14.4017 114.603 13.5148V13.0467C114.603 12.127 114.762 11.2483 115.081 10.4106C115.401 9.55659 115.871 8.80107 116.491 8.1441C117.112 7.48715 117.884 6.96978 118.806 6.59203C119.746 6.21426 120.819 6.02539 122.025 6.02539C123.337 6.02539 124.499 6.26354 125.509 6.73984C126.52 7.19971 127.327 7.84847 127.93 8.68611C128.426 9.37445 128.742 10.146 128.878 11.0007C128.927 11.3068 128.664 11.5686 128.337 11.5686H125.274C124.984 11.5686 124.748 11.3598 124.664 11.0976C124.536 10.693 124.303 10.3408 123.967 10.0411C123.523 9.61407 122.876 9.40056 122.025 9.40056C121.315 9.40056 120.721 9.5648 120.242 9.89327C119.781 10.2218 119.435 10.6734 119.205 11.2483C118.974 11.8231 118.859 12.5047 118.859 13.2931C118.859 14.0157 118.965 14.6727 119.178 15.264C119.391 15.8388 119.728 16.2905 120.189 16.619C120.668 16.931 121.289 17.0871 122.051 17.0871C122.619 17.0871 123.098 16.9967 123.488 16.8161C123.896 16.619 124.215 16.3562 124.445 16.0277C124.602 15.8098 124.72 15.5722 124.799 15.3149C124.88 15.0526 125.116 14.8452 125.405 14.8452H128.453C128.777 14.8452 129.038 15.1011 128.996 15.4044C128.872 16.2939 128.552 17.0929 128.037 17.8015C127.416 18.6391 126.591 19.2961 125.563 19.7724C124.534 20.2323 123.364 20.4623 122.051 20.4623Z" fill="white"/>
<path id="Vector_7" d="M110.992 -0.0800781H107.326C107.012 -0.0800781 106.758 0.160282 106.758 0.456779V3.90917C106.758 4.20566 107.012 4.44603 107.326 4.44603H110.992C111.306 4.44603 111.561 4.20566 111.561 3.90917V0.456779C111.561 0.160282 111.306 -0.0800781 110.992 -0.0800781Z" fill="white"/>
</g>
<g id="Group 1">
<path id="Vector_8" d="M14.8744 8.27734H10.0413C9.41188 8.27734 8.90161 8.75932 8.90161 9.35386V13.903C8.90161 14.4975 9.41188 14.9795 10.0413 14.9795H14.8744C15.5038 14.9795 16.0141 14.4975 16.0141 13.903V9.35386C16.0141 8.75932 15.5038 8.27734 14.8744 8.27734Z" fill="white"/>
<path id="Vector_9" d="M14.9265 0.347656H10.0934C9.46401 0.347656 8.95374 0.829634 8.95374 1.42417V5.97327C8.95374 6.56781 9.46401 7.04979 10.0934 7.04979H14.9265C15.5559 7.04979 16.0662 6.56781 16.0662 5.97327V1.42417C16.0662 0.829634 15.5559 0.347656 14.9265 0.347656Z" fill="white"/>
<path id="Vector_10" d="M23.5528 0.347656H18.7198C18.0903 0.347656 17.5801 0.829634 17.5801 1.42417V5.97327C17.5801 6.56781 18.0903 7.04979 18.7198 7.04979H23.5528C24.1824 7.04979 24.6925 6.56781 24.6925 5.97327V1.42417C24.6925 0.829634 24.1824 0.347656 23.5528 0.347656Z" fill="white"/>
<path id="Vector_11" d="M6.04329 8.22656H1.21027C0.580821 8.22656 0.0705566 8.70854 0.0705566 9.30308V13.8522C0.0705566 14.4467 0.580821 14.9287 1.21027 14.9287H6.04329C6.67275 14.9287 7.183 14.4467 7.183 13.8522V9.30308C7.183 8.70854 6.67275 8.22656 6.04329 8.22656Z" fill="white"/>
<path id="Vector_12" d="M6.04329 16.1074H1.21027C0.580821 16.1074 0.0705566 16.5894 0.0705566 17.1839V21.733C0.0705566 22.3275 0.580821 22.8096 1.21027 22.8096H6.04329C6.67275 22.8096 7.183 22.3275 7.183 21.733V17.1839C7.183 16.5894 6.67275 16.1074 6.04329 16.1074Z" fill="white"/>
</g>
</g>
</g>
<defs>
<clipPath id="clip0_36_5007">
<rect width="129" height="23" fill="white"/>
</clipPath>
</defs>
</svg>
