<svg width="24" height="24" viewBox="0 0 24 24" fill="none" xmlns="http://www.w3.org/2000/svg">
<g id="List &#226;&#134;&#146; Item &#226;&#134;&#146; SVG" clip-path="url(#clip0_90_6767)">
<path id="Vector" fill-rule="evenodd" clip-rule="evenodd" d="M14.0622 0.740577C13.4816 0.261826 12.7525 0 12 0C11.2474 0 10.5183 0.261826 9.93767 0.740577L8.02967 2.30401C7.6392 2.62433 7.17972 2.84967 6.68738 2.96229L4.29596 3.50743C2.78738 3.85029 1.71938 5.21658 1.72453 6.79029L1.73653 9.28629C1.73653 9.79886 1.6251 10.3046 1.40396 10.7657L0.332527 13.0114C0.00390535 13.6977 -0.0843256 14.4746 0.082026 15.2171C0.248378 15.9597 0.659642 16.6247 1.24967 17.1051L3.16967 18.6531C3.56567 18.9703 3.88453 19.3766 4.10053 19.8394L5.15481 22.092C5.46904 22.777 6.0102 23.3325 6.68677 23.6646C7.36335 23.9966 8.13384 24.0848 8.86796 23.9143L11.2542 23.3486C11.7445 23.232 12.2554 23.232 12.7457 23.3486L15.132 23.9143C15.8661 24.0848 16.6366 23.9966 17.3131 23.6646C17.9897 23.3325 18.5309 22.777 18.8451 22.092L19.8994 19.8394C20.1154 19.3766 20.4342 18.9703 20.8285 18.6531L22.7502 17.1051C23.9622 16.128 24.3445 14.4257 23.6674 13.0114L22.596 10.7674C22.3751 10.3056 22.2614 9.7999 22.2634 9.28801L22.2737 6.79201C22.2814 6.03416 22.0311 5.29622 21.5637 4.69958C21.0964 4.10293 20.4399 3.68311 19.7022 3.50915L17.3142 2.96229C16.8213 2.84991 16.3612 2.62456 15.9702 2.30401L14.0622 0.740577ZM17.8062 10.8257C18.0379 10.5882 18.1675 10.2695 18.1675 9.93772C18.1675 9.60593 18.0379 9.28727 17.8062 9.04972C17.6928 8.93308 17.5572 8.84037 17.4073 8.77706C17.2574 8.71375 17.0964 8.68114 16.9337 8.68114C16.771 8.68114 16.6099 8.71375 16.4601 8.77706C16.3102 8.84037 16.1745 8.93308 16.0611 9.04972L11.2542 13.9457L8.73424 11.5371C8.61719 11.424 8.47863 11.3355 8.32676 11.2768C8.17489 11.2182 8.01279 11.1906 7.85008 11.1957C7.68736 11.2008 7.52732 11.2386 7.37943 11.3066C7.23154 11.3747 7.09881 11.4717 6.9891 11.592C6.76467 11.8366 6.64477 12.1593 6.65502 12.4912C6.66527 12.823 6.80485 13.1377 7.04396 13.368L10.4365 16.6114C10.6682 16.8345 10.9787 16.9568 11.3002 16.9516C11.6217 16.9465 11.9281 16.8143 12.1525 16.584L17.8045 10.8257H17.8062Z" fill="#A5B4FC"/>
</g>
<defs>
<clipPath id="clip0_90_6767">
<rect width="24" height="24" fill="white"/>
</clipPath>
</defs>
</svg>
